<?xml version="1.0" encoding="UTF-8" standalone="no"?>
<!-- Created with Inkscape (http://www.inkscape.org/) -->

<svg
   xmlns:dc="http://purl.org/dc/elements/1.1/"
   xmlns:cc="http://creativecommons.org/ns#"
   xmlns:rdf="http://www.w3.org/1999/02/22-rdf-syntax-ns#"
   xmlns:svg="http://www.w3.org/2000/svg"
   xmlns="http://www.w3.org/2000/svg"
   xmlns:xlink="http://www.w3.org/1999/xlink"
   xmlns:sodipodi="http://sodipodi.sourceforge.net/DTD/sodipodi-0.dtd"
   xmlns:inkscape="http://www.inkscape.org/namespaces/inkscape"
   width="320"
   height="480"
   id="svg2846"
   version="1.1"
   inkscape:version="0.47 r22583"
   sodipodi:docname="splashscreen.svg">
  <defs
     id="defs3">
    <inkscape:perspective
       sodipodi:type="inkscape:persp3d"
       inkscape:vp_x="0 : 526.18109 : 1"
       inkscape:vp_y="0 : 1000 : 0"
       inkscape:vp_z="744.09448 : 526.18109 : 1"
       inkscape:persp3d-origin="372.04724 : 350.78739 : 1"
       id="perspective2852" />
    <inkscape:perspective
       id="perspective2911"
       inkscape:persp3d-origin="0.5 : 0.33333333 : 1"
       inkscape:vp_z="1 : 0.5 : 1"
       inkscape:vp_y="0 : 1000 : 0"
       inkscape:vp_x="0 : 0.5 : 1"
       sodipodi:type="inkscape:persp3d" />
    <inkscape:perspective
       id="perspective2951"
       inkscape:persp3d-origin="0.5 : 0.33333333 : 1"
       inkscape:vp_z="1 : 0.5 : 1"
       inkscape:vp_y="0 : 1000 : 0"
       inkscape:vp_x="0 : 0.5 : 1"
       sodipodi:type="inkscape:persp3d" />
    <inkscape:perspective
       sodipodi:type="inkscape:persp3d"
       inkscape:vp_x="0 : 0.5 : 1"
       inkscape:vp_y="0 : 1000 : 0"
       inkscape:vp_z="1 : 0.5 : 1"
       inkscape:persp3d-origin="0.5 : 0.33333333 : 1"
       id="perspective5086" />
    <filter
       color-interpolation-filters="sRGB"
       inkscape:menu-tooltip="Simple Gaussian blur, same as the blur slider in Fill and Stroke dialog"
       inkscape:menu="ABCs"
       inkscape:label="Simple blur"
       id="filter5066">
      <feGaussianBlur
         stdDeviation="3"
         id="feGaussianBlur5068" />
    </filter>
    <radialGradient
       gradientUnits="userSpaceOnUse"
       gradientTransform="matrix(1,0,0,0.99797419,0,0.02447111)"
       r="36.96777"
       fy="12.079691"
       fx="75.951904"
       cy="12.079691"
       cx="75.951904"
       id="radialGradient5064"
       xlink:href="#linearGradient5058"
       inkscape:collect="always" />
    <radialGradient
       gradientTransform="matrix(1.7274535,-1.7081778,1.6274817,1.6458466,-89.106135,-12.560256)"
       gradientUnits="userSpaceOnUse"
       r="28.5"
       fy="57.137253"
       fx="14.250475"
       cy="57.137253"
       cx="14.250474"
       id="radialGradient5054"
       xlink:href="#linearGradient3590"
       inkscape:collect="always" />
    <radialGradient
       gradientTransform="matrix(1.7274533,-1.7081779,1.6274817,1.6458466,-89.106136,-12.560252)"
       gradientUnits="userSpaceOnUse"
       r="28.5"
       fy="57.137253"
       fx="14.250477"
       cy="57.137253"
       cx="14.250476"
       id="radialGradient5046"
       xlink:href="#linearGradient3590"
       inkscape:collect="always" />
    <inkscape:perspective
       id="perspective10"
       inkscape:persp3d-origin="372.04724 : 350.78739 : 1"
       inkscape:vp_z="744.09448 : 526.18109 : 1"
       inkscape:vp_y="0 : 1000 : 0"
       inkscape:vp_x="0 : 526.18109 : 1"
       sodipodi:type="inkscape:persp3d" />
    <linearGradient
       id="linearGradient3590">
      <stop
         id="stop3592"
         offset="0"
         style="stop-color:#c0fffa;stop-opacity:1;" />
      <stop
         style="stop-color:#63a4b8;stop-opacity:1;"
         offset="0.25999999"
         id="stop3600" />
      <stop
         style="stop-color:#054a77;stop-opacity:1;"
         offset="0.67733288"
         id="stop3598" />
      <stop
         id="stop3594"
         offset="1"
         style="stop-color:#002850;stop-opacity:1;" />
    </linearGradient>
    <linearGradient
       id="linearGradient5058">
      <stop
         id="stop5060"
         offset="0"
         style="stop-color:#ffffff;stop-opacity:1;" />
      <stop
         id="stop5062"
         offset="1"
         style="stop-color:#00ebff;stop-opacity:1;" />
    </linearGradient>
    <inkscape:perspective
       id="perspective4077"
       inkscape:persp3d-origin="0.5 : 0.33333333 : 1"
       inkscape:vp_z="1 : 0.5 : 1"
       inkscape:vp_y="0 : 1000 : 0"
       inkscape:vp_x="0 : 0.5 : 1"
       sodipodi:type="inkscape:persp3d" />
  </defs>
  <sodipodi:namedview
     inkscape:document-units="mm"
     id="base"
     pagecolor="#ffffff"
     bordercolor="#666666"
     borderopacity="1.0"
     inkscape:pageopacity="0.0"
     inkscape:pageshadow="2"
     inkscape:zoom="1.33"
     inkscape:cx="154.73028"
     inkscape:cy="165.83107"
     inkscape:current-layer="layer1"
     showgrid="false"
     inkscape:window-width="1680"
     inkscape:window-height="931"
     inkscape:window-x="0"
     inkscape:window-y="0"
     inkscape:window-maximized="0" />
  <metadata
     id="metadata4">
    <rdf:RDF>
      <cc:Work
         rdf:about="">
        <dc:format>image/svg+xml</dc:format>
        <dc:type
           rdf:resource="http://purl.org/dc/dcmitype/StillImage" />
        <dc:title></dc:title>
      </cc:Work>
    </rdf:RDF>
  </metadata>
  <g
     inkscape:label="Layer 1"
     inkscape:groupmode="layer"
     id="layer1"
     transform="translate(0,-572.36217)">
    <rect
       style="opacity:1;fill:#033964;fill-opacity:1;stroke:#000000;stroke-width:0;stroke-linejoin:round;stroke-miterlimit:4;stroke-opacity:1;stroke-dasharray:none;stroke-dashoffset:0"
       id="rect3271"
       width="320"
       height="480"
       x="0"
       y="572.36218"
       inkscape:export-filename="/Users/ClaudiaK/Documents/openaustraliasearch/Default.png"
       inkscape:export-xdpi="90"
       inkscape:export-ydpi="90" />
    <g
       transform="matrix(4.6090225,0,0,5.2004107,28.642853,-4592.4984)"
       id="layer1-9"
       inkscape:label="Layer 1"
       inkscape:export-filename="/Users/ClaudiaK/Documents/openaustraliasearch/Default.png"
       inkscape:export-xdpi="90"
       inkscape:export-ydpi="90">
      <rect
         ry="0"
         transform="translate(0,995.36218)"
         y="0.13725491"
         x="0"
         height="57"
         width="57"
         id="rect2816"
         style="fill:url(#radialGradient5054);fill-opacity:1;stroke:url(#radialGradient5046);stroke-width:0;stroke-linejoin:round;stroke-miterlimit:4;stroke-opacity:1;stroke-dasharray:none;stroke-dashoffset:0" />
      <path
         transform="matrix(0.64526694,0,0,0.64636289,-20.509251,1016.0543)"
         d="M 101.15061,30.442408 85.569037,20.479802 101.45982,23.887986 85.968213,21.408539 100.37259,25.980537 80.898462,15.879964 99.907038,24.563243 83.504756,20.30996 108.33982,26.76602 80.195193,12.718378 101.18721,31.490438 80.159827,18.499897 99.05832,28.207294 82.405112,20.441094 102.48034,31.206738 88.978843,15.448839 99.567433,31.131849 79.342392,14.321406 106.09052,30.256369 87.14952,22.307604 103.97531,27.372966 79.710548,14.058693 101.35742,36.258646 84.876553,14.701039 103.39781,36.359988 88.458502,19.192359 101.20214,31.038334 81.206109,22.26809 104.04099,37.024781 88.04991,18.648001 102.12684,32.837099 87.406844,18.561448 99.861556,33.532751 85.706963,17.059176 99.283604,39.504269 82.950149,22.835959 98.871812,34.472255 78.609662,23.76665 99.083049,32.457606 82.462643,17.686006 99.480683,39.600695 85.785748,22.314588 96.18045,36.899823 78.275138,17.915044 98.432656,38.314197 82.832459,14.883551 96.459713,41.678487 82.458756,20.528794 95.718012,34.131507 81.038474,24.520061 98.113317,40.377692 78.024437,20.655116 95.352061,41.558155 83.73142,15.374074 92.778213,42.118092 83.543226,17.149432 96.274719,40.683397 77.359824,16.648308 97.138316,36.026436 80.424517,18.161281 89.903165,42.328724 77.067236,23.300267 93.677427,35.553761 77.492306,16.385262 94.282256,40.836112 81.799692,25.221313 96.12931,42.580485 80.649424,18.666052 91.449635,39.728098 79.48695,16.710379 92.33431,40.75161 81.153069,23.645097 91.630863,43.485509 81.236021,23.567924 92.160871,46.166829 77.442643,20.555413 85.647162,46.029811 76.984819,18.396786 91.198537,42.923221 82.842689,24.262029 84.331342,45.526134 80.810236,22.462791 89.985841,46.155135 83.624573,26.091962 88.678211,38.549828 80.007636,23.807374 85.257045,41.166709 76.389021,17.189406 90.026716,46.575989 77.100325,22.108963 82.378542,46.834423 81.675119,25.86555 82.921878,42.27293 75.943729,19.693206 82.416332,45.861215 79.461198,24.22935 79.260993,44.536443 79.112984,16.897183 85.361646,46.096831 81.573818,25.460635 80.09955,41.754497 74.256096,20.995785 83.556971,46.882312 82.100279,17.539317 85.439177,44.786776 74.253348,21.614597 81.405216,41.554916 75.138576,22.952637 81.699173,40.109765 76.549823,24.470042 82.922171,45.70348 77.422893,26.073778 76.253115,41.49398 73.903631,21.073643 l 0.526254,23.830921 0.355323,-18.107004 7.069206,14.863012 -6.188322,-22.16746 -2.059639,28.171133 1.875636,-29.042147 5.026986,25.458724 -4.147634,-21.875457 1.260938,26.165686 -5.310793,-24.76644 6.307003,18.749484 -5.955735,-16.403612 3.08542,15.934513 -2.724658,-17.077549 -0.684089,19.969209 1.034591,-24.125251 1.011195,28.321164 -0.134212,-23.603056 -1.685805,14.874619 7.411123,-13.423126 -9.759101,17.594945 1.385337,-24.643254 2.248876,24.854846 -1.889478,-23.780398 1.121609,27.43018 0.281683,-22.508133 0.01423,23.026721 1.389041,-31.133015 -0.04927,26.831128 -2.412157,-19.638748 -0.559113,20.733719 3.016711,-26.316049 -9.33576,25.767288 11.8031,-27.226252 -7.289951,24.866977 0.50749,-22.898726 -4.189854,22.15927 2.773103,-20.871918 -4.87338,21.752324 L 73.082321,23.39669 63.124496,41.653986 77.659347,18.291032 64.18878,44.69166 77.834894,23.126587 66.846072,42.58179 73.162188,23.644393 61.835696,45.522283 70.061391,24.910621 68.712662,43.735782 71.819818,23.755063 63.004009,41.299148 69.257245,22.794705 65.783515,45.917443 77.00978,22.858557 59.447495,47.06804 71.628179,23.655246 60.587709,37.367077 71.176057,20.134306 59.000527,45.519824 76.10061,18.942528 65.427552,41.649104 67.454259,23.54156 59.349792,43.689636 74.498784,22.802129 61.276671,43.722232 67.435664,24.661215 56.601706,38.038943 67.330544,21.750815 55.083136,40.140979 71.638176,20.632114 55.68675,40.526748 72.062239,24.428373 59.983927,42.11296 74.605937,24.315551 57.670319,40.386822 72.292398,21.205892 58.523655,36.431039 66.115403,23.617989 59.206596,34.835971 71.288693,18.084102 57.14381,39.628923 71.624541,17.77239 58.785431,36.690085 69.141667,24.63406 60.247366,37.432846 68.241391,21.146693 55.099277,33.781313 67.332884,15.729626 53.646292,33.496304 68.017126,20.36308 56.9429,36.908919 70.284411,16.81281 53.629916,35.927602 73.607687,20.120791 55.066805,38.64416 68.209266,18.344441 50.432008,35.794983 64.394169,19.244502 55.922712,38.975965 71.412445,16.142913 50.473296,34.917836 69.709459,19.899733 54.632769,34.304499 69.589444,23.085278 53.765363,37.389705 70.525973,15.739689 47.344108,29.883287 63.795226,22.113219 55.460802,34.532562 67.371262,22.137619 48.763663,33.341343 68.666141,14.056068 46.978552,29.808875 65.631504,16.186113 45.391886,31.580517 64.180369,19.91035 52.958215,32.554352 69.171406,16.280396 51.086675,31.102923 70.88753,14.498339 44.726654,31.096564 69.785506,18.807842 43.645137,28.442971 64.374254,15.46365 47.842696,26.390111 65.912581,19.531665 49.000957,26.688906 64.185864,14.349801 43.147627,24.424418 68.901501,21.368864 49.013576,27.351408 65.41356,20.443034 49.844404,25.522237 67.921198,17.459251 46.177352,24.29462 68.128072,15.5408 48.327077,29.026277 69.401892,12.631434 45.968865,22.655156 63.009076,14.747137 49.427901,24.408856 68.1288,13.737848 43.987625,21.484611 64.904052,11.431049 48.746048,28.111207 63.253305,10.957131 44.615674,23.292653 63.196706,14.005455 46.819855,20.490445 64.724211,19.73142 43.999484,22.473103 68.879963,16.761385 47.513945,17.777652 64.325406,12.800859 43.183972,19.596316 66.730516,14.932763 44.134592,24.183673 65.871378,11.063378 45.517279,21.778155 66.586517,10.109854 48.305998,21.374404 64.494169,17.176181 47.652375,14.293455 68.914713,16.076178 47.877772,14.479163 71.044823,16.886962 39.295451,15.195486 68.846652,12.686308 41.88682,18.152264 63.841037,16.505728 45.437726,19.712773 65.875758,9.0597246 40.778772,19.400995 65.092987,8.7892529 41.249783,18.967186 65.88457,11.435089 l -21.71275,2.058256 24.625912,-0.07127 -21.271194,-0.450965 15.991051,4.03382 -20.99707,0.457433 21.70326,-6.30549 L 48.241803,12.101608 62.639904,9.3853122 45.602363,11.754721 62.630241,9.4477398 38.984135,12.400557 64.742008,7.7689974 44.077043,11.951461 64.036775,16.514046 40.362707,14.200438 69.317559,13.66326 47.82265,12.162517 66.932603,10.392026 42.063362,5.6156032 66.6491,14.550558 45.997593,13.378971 67.432825,7.9424135 47.453989,6.3112979 66.453714,11.006715 39.566064,7.4451065 70.93366,8.8225881 47.264135,10.417795 63.346089,10.715522 47.655845,10.042391 62.26168,5.7638587 43.541817,8.3138953 67.620442,6.4856485 45.236429,9.5074398 70.242087,5.7204998 43.489478,9.4412898 69.519557,10.866864 47.023992,7.7846536 70.898397,13.666081 47.116857,4.8686898 68.495956,6.7973893 48.616597,0.67791532 63.276549,11.435872 45.620555,6.8398215 69.935882,13.727371 48.960123,1.9655281 67.885045,6.3354587 47.803637,-3.4157431 68.473125,5.2020263 42.678446,-2.6257147 70.108287,12.250813 43.351521,1.3259314 63.560631,6.5170336 45.431427,-3.6083717 69.428776,3.7940845 46.899887,3.4230167 66.039904,7.9884259 50.291904,-5.6229739 64.772342,11.525461 49.197987,-1.3050147 70.981924,9.6009538 43.597612,-7.0322789 63.105811,5.4388453 48.654159,-5.520094 66.581288,5.2774 43.848694,-6.0006995 67.776543,11.121286 50.743942,-1.9204057 64.116062,7.4429167 50.102534,-0.60942405 63.094238,10.023591 50.825289,-9.0794444 68.515021,7.4187501 52.954024,-6.8789026 70.13464,7.5653958 46.184601,-5.050142 68.419391,2.5266215 48.560195,-1.6379883 68.805363,7.0843466 45.922136,-6.7627728 64.872888,9.6428558 53.402958,-10.00421 68.427301,7.5850084 46.619267,-9.6571764 73.048774,7.7873165 48.453686,-7.9086242 73.341478,4.0632877 51.166224,-9.7787469 70.816456,0.98755697 53.703202,-10.185362 70.402668,9.4358506 55.617355,-5.9976809 69.991389,9.1914288 51.979717,-7.008643 72.218364,5.4291791 48.693237,-11.820197 65.197605,8.3472094 53.506932,-10.202809 69.538249,8.4991203 48.883886,-14.313 65.158175,0.28945485 58.273416,-12.999226 71.612328,4.3556854 51.79639,-9.2157508 70.399867,9.0862055 59.3216,-10.630124 69.189948,7.2894934 50.990034,-8.7298937 70.080839,6.3950939 56.660732,-9.8620614 67.636531,2.4811886 51.849718,-15.124776 70.123317,0.75063712 55.127848,-13.719601 74.193907,7.1142813 57.184508,-19.030381 69.006432,0.84169433 57.552907,-15.507843 70.788087,5.8400473 57.216403,-16.115403 67.713174,2.3998176 59.532619,-12.893889 66.231943,7.8985667 55.748295,-16.740996 70.118606,1.8281481 55.143465,-12.245931 70.749808,1.4646255 57.869072,-14.988437 67.49833,2.7397004 63.592871,-13.732331 69.177834,8.3636138 57.262639,-16.274543 67.521779,2.2735499 58.492866,-16.660753 70.786386,-1.3948792 62.364919,-21.674097 70.705269,1.9329423 63.949473,-13.940534 75.554933,-0.16771164 58.925349,-15.015863 77.058455,2.5627271 60.40697,-21.878056 73.715397,0.94733821 67.402172,-20.329515 76.803665,5.2456879 68.709803,-22.501623 70.11625,4.0999838 66.755457,-18.755716 68.886132,-0.1264005 63.039816,-16.22181 73.56056,0.2959251 70.160896,-20.993138 78.236403,3.9690649 69.607654,-16.193696 78.06503,1.131285 70.650357,-14.424433 74.537341,4.4452998 72.741445,-22.970103 71.548059,6.5903077 66.640792,-14.753076 78.337546,3.2913768 68.028078,-22.038052 70.492121,2.4143439 74.348387,-15.223246 78.338022,4.8655708 72.476087,-23.143075 76.397632,1.0282397 71.65141,-20.740203 74.468436,2.3690831 66.965612,-24.813187 77.985873,-0.21525926 76.979131,-17.796122 76.575489,1.51827 68.494945,-19.166453 75.703224,3.1654752 70.318175,-22.577038 75.348583,0.87184905 78.036668,-15.68047 74.994793,2.9117762 70.614671,-18.989595 78.516607,1.357739 73.489306,-16.488774 78.164034,0.12216144 72.491287,-22.390949 78.339393,-0.96177416 75.369887,-24.301514 77.46119,3.0394781 74.375612,-23.755053 77.110333,3.9445647 77.257422,-20.29959 80.634484,-0.90951598 80.130414,-15.547076 80.284437,-2.1973324 78.085683,-17.601295 79.934788,0.84840382 79.379474,-21.021487 79.048168,1.7875374 80.674102,-21.217414 77.644646,2.3093702 84.831602,-16.856208 80.643257,3.750112 84.535684,-17.374796 79.229918,1.2343367 83.19576,-23.932927 77.299665,-0.61615987 80.791676,-17.582507 75.359255,-0.06040311 87.11041,-19.198951 76.776316,0.84530153 87.97293,-22.119862 74.308613,4.4725477 81.878035,-20.297803 80.563876,2.3248773 83.978156,-22.260812 77.051471,4.2727192 84.486259,-14.745764 76.876349,5.9637513 83.411755,-19.710693 82.07647,5.6254253 91.069192,-20.938089 76.44451,-0.48787772 90.176805,-23.111289 75.21392,3.0124021 84.343807,-14.226256 78.304226,5.2348981 85.133682,-20.738049 80.866798,6.1952559 84.340371,-18.010085 77.525916,1.3962258 85.300723,-13.880496 77.046826,3.3460035 88.998863,-15.899869 81.900537,1.2871123 85.210376,-18.77243 81.297623,-0.96706715 94.463686,-14.5864 84.5584,-0.04796377 95.175683,-21.362109 82.899292,3.8681452 88.847372,-14.732272 84.5869,8.371848 93.522023,-20.991603 81.334555,5.4883831 95.406678,-12.540373 80.911483,7.1364272 94.276128,-16.356434 85.335994,3.3245035 89.978951,-17.942647 83.319233,6.8676174 92.292402,-17.299111 80.774448,1.536077 95.303813,-12.338087 82.032352,7.5651791 91.283376,-15.930179 86.626571,3.5595993 92.819068,-15.45861 80.397866,4.4006543 93.592999,-14.585844 83.407991,3.1344817 92.131221,-14.246004 80.433457,4.7719543 92.350312,-11.692737 80.804965,5.9140752 93.803297,-11.407729 79.603535,6.3071943 100.81151,-8.1422439 77.863501,5.6755456 93.819831,-12.756425 84.844891,7.9630611 102.15014,-7.6228229 79.938489,3.0613114 101.41964,-6.2610164 84.280836,7.7567477 101.30445,-6.0273718 87.039975,1.0809212 101.89523,-12.575647 88.216025,3.6712246 103.11142,-7.4650803 88.335726,8.0978905 103.97883,-10.550287 86.872261,2.2357721 100.62267,-12.821284 78.966796,3.7280667 102.2933,-7.9310919 84.641239,10.050789 99.213178,-5.6572709 79.481928,9.5148899 101.67633,-4.4969333 82.51625,5.2196394 103.27306,-5.4239209 88.359226,7.0135381 105.48414,-6.3977559 88.22667,10.389878 106.81837,-1.6090624 81.135034,8.7573079 102.8841,-4.1883414 88.657009,8.4313562 104.49255,-7.881872 87.648154,6.7093944 100.82209,-1.3161173 81.708394,9.3038142 101.65002,-4.0460694 88.880982,8.3921685 101.06328,-7.45444 89.023826,10.896907 101.63725,-5.7911733 82.197195,6.4651888 110.05674,1.3025192 84.101209,4.7137932 103.40938,-1.7448102 84.411366,10.300486 101.79681,-1.1189184 88.523592,10.939524 103.61771,-1.1879486 85.138678,6.6586158 105.09773,-0.99872718 89.957377,11.404949 106.14632,-2.5100141 83.404868,5.016936 105.77943,3.9937347 85.045394,13.341013 109.39277,5.1440489 85.112056,11.137343 103.84134,4.0796486 83.057614,11.758501 110.00896,5.9635989 83.820641,13.899547 106.4945,0.88163396 88.912354,13.440206 106.94998,-0.62171919 81.578246,10.210034 105.99936,4.5683393 82.437385,14.07942 109.01857,3.5592305 86.114086,10.773663 106.2297,2.8803792 83.287814,5.6189276 107.40035,3.8521528 89.171622,10.149222 112.02353,3.6507799 87.568448,12.76873 110.8385,3.7791108 83.853951,8.1972087 107.72004,6.0868541 83.940632,13.901591 109.08806,4.779959 86.307814,8.1555519 104.6577,13.341675 87.090585,8.4260236 112.91967,13.20656 81.88735,10.515366 106.12298,8.1356936 89.278698,13.041274 112.53577,8.8958787 84.791173,8.1378685 107.24734,10.513801 88.48673,9.4886964 106.44499,16.128168 90.070762,12.342859 109.09434,16.237107 89.543269,16.700298 105.40806,11.078377 87.958437,12.031917 105.68076,15.180048 84.272145,9.7113541 104.02933,17.973308 88.241525,16.744058 112.24972,10.549124 90.626481,10.237877 108.74847,19.681676 86.051503,16.110375 108.69895,13.530254 84.740528,17.123022 112.45722,11.580696 81.855048,14.136082 110.55798,21.544854 81.249755,17.087501 106.73456,19.339458 84.435737,10.996983 112.78246,22.139913 90.438766,14.037056 106.59213,20.438117 89.938799,15.226857 104.89752,19.244572 82.995516,9.6605473 106.64447,19.310722 88.566778,15.358536 112.35022,15.60981 87.177875,11.714666 107.40878,18.541439 84.214553,13.848179 111.2847,17.452027 89.434117,10.292299 103.97624,26.332058 88.667484,16.16627 110.95124,26.786484 89.674039,14.294445 111.58063,27.654861 89.61321,11.245958 107.45566,22.682914 87.440891,18.394454 111.17411,22.084198 84.221352,16.278075 104.69246,21.738314 89.023487,12.347147 107.09881,26.334236 85.98266,15.267221 104.22367,28.188449 87.777159,15.160478 105.3278,25.797746 87.470339,16.317693 101.15061,30.442408 z"
         inkscape:randomized="0.15"
         inkscape:rounded="0"
         inkscape:flatsided="false"
         sodipodi:arg2="0.47710786"
         sodipodi:arg1="0.46813188"
         sodipodi:r2="9.7774153"
         sodipodi:r1="32.591385"
         sodipodi:cy="12.228758"
         sodipodi:cx="76.143791"
         sodipodi:sides="350"
         id="path5056"
         style="opacity:0.49180328;fill:url(#radialGradient5064);fill-opacity:1;stroke:#000000;stroke-width:0;stroke-linejoin:round;stroke-miterlimit:4;stroke-opacity:1;stroke-dasharray:none;stroke-dashoffset:0;filter:url(#filter5066)"
         sodipodi:type="star" />
      <flowRoot
         transform="matrix(1.1331782,0,0,-1.0864146,-120.32752,1058.1103)"
         style="font-size:40px;font-style:normal;font-weight:normal;fill:#ffffff;fill-opacity:1;stroke:none;font-family:Bitstream Vera Sans"
         id="flowRoot5070"
         xml:space="preserve"><flowRegion
           id="flowRegion5072"><rect
             style="fill:#ffffff;fill-opacity:1"
             y="-1.496732"
             x="106.20915"
             height="46.732025"
             width="34.313721"
             id="rect5074" /></flowRegion><flowPara
           id="flowPara5076">O</flowPara></flowRoot>      <flowRoot
         transform="matrix(-1.291947,0.00575098,0.00642634,1.1561735,191.88483,988.23925)"
         style="font-size:40px;font-style:normal;font-weight:normal;fill:#b64922;fill-opacity:1;stroke:none;font-family:Bitstream Vera Sans"
         id="flowRoot5070-0"
         xml:space="preserve"><flowRegion
           id="flowRegion5072-6"><rect
             style="fill:#b64922;fill-opacity:1"
             y="-1.496732"
             x="106.20915"
             height="46.732025"
             width="34.313721"
             id="rect5074-9" /></flowRegion><flowPara
           id="flowPara5076-0">A</flowPara></flowRoot>    </g>
    <flowRoot
       xml:space="preserve"
       id="flowRoot4045"
       style="font-size:40px;font-style:normal;font-weight:normal;fill:#ffffff;fill-opacity:0;stroke:none;font-family:Bitstream Vera Sans"
       transform="translate(-9.0225564,550.55766)"
       inkscape:export-filename="/Users/ClaudiaK/Documents/openaustraliasearch/Default.png"
       inkscape:export-xdpi="90"
       inkscape:export-ydpi="90"><flowRegion
         id="flowRegion4047"><rect
           id="rect4049"
           width="301.50375"
           height="68.571442"
           x="20"
           y="342.85715"
           style="fill:#ffffff;fill-opacity:0" /></flowRegion><flowPara
         id="flowPara4051"
         style="fill:#ffffff;fill-opacity:1">Open Australia</flowPara></flowRoot>    <flowRoot
       xml:space="preserve"
       id="flowRoot4093"
       style="font-size:40px;font-style:normal;font-weight:normal;fill:#ffffff;fill-opacity:1;stroke:none;font-family:Bitstream Vera Sans"
       transform="matrix(0.44211661,0,0,0.68923318,48.354158,693.45209)"
       inkscape:export-filename="/Users/ClaudiaK/Documents/openaustraliasearch/Default.png"
       inkscape:export-xdpi="90"
       inkscape:export-ydpi="90"><flowRegion
         id="flowRegion4095"><rect
           id="rect4097"
           width="679.69928"
           height="62.406025"
           x="-89.473686"
           y="377.74435"
           style="fill:#ffffff;fill-opacity:1" /></flowRegion><flowPara
         id="flowPara4099">http://www.openaustralia.com.au</flowPara></flowRoot>  </g>
</svg>
